<svg xmlns="http://www.w3.org/2000/svg" width="75" viewBox="0 0 75 37.5" height="37.5" version="1.0"><g><g><g><path d="M 7.109375 -6.9375 C 8.222656 -6.800781 9.101562 -6.429688 9.75 -5.828125 C 10.40625 -5.222656 10.734375 -4.472656 10.734375 -3.578125 C 10.734375 -2.890625 10.535156 -2.269531 10.140625 -1.71875 C 9.742188 -1.164062 9.195312 -0.726562 8.5 -0.40625 C 7.800781 -0.0820312 7.023438 0.078125 6.171875 0.078125 C 5.796875 0.078125 5.375 0.0546875 4.90625 0.015625 C 4.71875 0.00390625 4.488281 -0.00390625 4.21875 -0.015625 C 3.945312 -0.0351562 3.648438 -0.046875 3.328125 -0.046875 L 1.875 -0.015625 C 1.613281 -0.00390625 1.257812 0 0.8125 0 C 0.769531 0 0.75 -0.0351562 0.75 -0.109375 C 0.75 -0.191406 0.769531 -0.234375 0.8125 -0.234375 C 1.195312 -0.234375 1.484375 -0.269531 1.671875 -0.34375 C 1.867188 -0.414062 2.007812 -0.546875 2.09375 -0.734375 C 2.1875 -0.929688 2.234375 -1.21875 2.234375 -1.59375 L 2.234375 -10.75 C 2.234375 -11.300781 2.140625 -11.664062 1.953125 -11.84375 C 1.773438 -12.019531 1.398438 -12.109375 0.828125 -12.109375 C 0.804688 -12.109375 0.796875 -12.148438 0.796875 -12.234375 C 0.796875 -12.316406 0.804688 -12.359375 0.828125 -12.359375 L 1.875 -12.328125 C 2.476562 -12.304688 2.960938 -12.296875 3.328125 -12.296875 C 3.691406 -12.296875 4.070312 -12.316406 4.46875 -12.359375 C 4.601562 -12.367188 4.800781 -12.378906 5.0625 -12.390625 C 5.320312 -12.398438 5.550781 -12.40625 5.75 -12.40625 C 6.945312 -12.40625 7.875 -12.1875 8.53125 -11.75 C 9.195312 -11.320312 9.53125 -10.691406 9.53125 -9.859375 C 9.53125 -9.234375 9.320312 -8.660156 8.90625 -8.140625 C 8.488281 -7.628906 7.890625 -7.226562 7.109375 -6.9375 Z M 5.453125 -11.984375 C 5.066406 -11.984375 4.800781 -11.890625 4.65625 -11.703125 C 4.519531 -11.523438 4.453125 -11.195312 4.453125 -10.71875 L 4.453125 -6.953125 L 5.234375 -6.9375 C 5.921875 -6.9375 6.445312 -7.191406 6.8125 -7.703125 C 7.1875 -8.222656 7.375 -8.882812 7.375 -9.6875 C 7.375 -10.4375 7.207031 -11.003906 6.875 -11.390625 C 6.550781 -11.785156 6.078125 -11.984375 5.453125 -11.984375 Z M 5.828125 -0.421875 C 7.554688 -0.421875 8.421875 -1.316406 8.421875 -3.109375 C 8.421875 -4.117188 8.175781 -4.921875 7.6875 -5.515625 C 7.195312 -6.109375 6.457031 -6.40625 5.46875 -6.40625 C 5.09375 -6.40625 4.753906 -6.390625 4.453125 -6.359375 L 4.453125 -1.59375 C 4.453125 -1.164062 4.535156 -0.863281 4.703125 -0.6875 C 4.878906 -0.507812 5.253906 -0.421875 5.828125 -0.421875 Z M 5.828125 -0.421875" transform="translate(1.818 25.436)"/></g></g></g><g><g><g><path d="M 14 -0.234375 C 14.019531 -0.234375 14.03125 -0.191406 14.03125 -0.109375 C 14.03125 -0.0351562 14.019531 0 14 0 L 10.46875 0 C 10.1875 0 9.648438 -0.539062 8.859375 -1.625 C 8.066406 -2.71875 7.109375 -4.238281 5.984375 -6.1875 C 5.878906 -6.175781 5.726562 -6.171875 5.53125 -6.171875 C 5.019531 -6.171875 4.660156 -6.175781 4.453125 -6.1875 L 4.453125 -1.59375 C 4.453125 -1.1875 4.484375 -0.890625 4.546875 -0.703125 C 4.609375 -0.523438 4.734375 -0.398438 4.921875 -0.328125 C 5.117188 -0.265625 5.425781 -0.234375 5.84375 -0.234375 C 5.875 -0.234375 5.890625 -0.191406 5.890625 -0.109375 C 5.890625 -0.0351562 5.875 0 5.84375 0 C 5.414062 0 5.078125 -0.00390625 4.828125 -0.015625 L 3.328125 -0.046875 L 1.875 -0.015625 C 1.613281 -0.00390625 1.257812 0 0.8125 0 C 0.769531 0 0.75 -0.0351562 0.75 -0.109375 C 0.75 -0.191406 0.769531 -0.234375 0.8125 -0.234375 C 1.226562 -0.234375 1.53125 -0.265625 1.71875 -0.328125 C 1.914062 -0.398438 2.050781 -0.53125 2.125 -0.71875 C 2.195312 -0.914062 2.234375 -1.207031 2.234375 -1.59375 L 2.234375 -10.75 C 2.234375 -11.144531 2.195312 -11.4375 2.125 -11.625 C 2.0625 -11.8125 1.929688 -11.9375 1.734375 -12 C 1.535156 -12.070312 1.234375 -12.109375 0.828125 -12.109375 C 0.804688 -12.109375 0.796875 -12.148438 0.796875 -12.234375 C 0.796875 -12.316406 0.804688 -12.359375 0.828125 -12.359375 L 1.875 -12.328125 C 2.476562 -12.304688 2.960938 -12.296875 3.328125 -12.296875 C 3.703125 -12.296875 4.117188 -12.316406 4.578125 -12.359375 C 4.722656 -12.367188 4.910156 -12.378906 5.140625 -12.390625 C 5.378906 -12.398438 5.65625 -12.40625 5.96875 -12.40625 C 7.175781 -12.40625 8.113281 -12.1875 8.78125 -11.75 C 9.445312 -11.3125 9.78125 -10.695312 9.78125 -9.90625 C 9.78125 -9.300781 9.59375 -8.71875 9.21875 -8.15625 C 8.851562 -7.601562 8.375 -7.15625 7.78125 -6.8125 C 8.84375 -5.15625 9.726562 -3.859375 10.4375 -2.921875 C 11.15625 -1.984375 11.796875 -1.300781 12.359375 -0.875 C 12.921875 -0.445312 13.46875 -0.234375 14 -0.234375 Z M 4.453125 -6.765625 C 4.765625 -6.710938 5.144531 -6.6875 5.59375 -6.6875 C 6.070312 -6.6875 6.445312 -6.753906 6.71875 -6.890625 C 7 -7.035156 7.203125 -7.285156 7.328125 -7.640625 C 7.453125 -8.003906 7.515625 -8.507812 7.515625 -9.15625 C 7.515625 -10.226562 7.351562 -10.96875 7.03125 -11.375 C 6.71875 -11.789062 6.265625 -12 5.671875 -12 C 5.222656 -12 4.90625 -11.898438 4.71875 -11.703125 C 4.539062 -11.503906 4.453125 -11.175781 4.453125 -10.71875 Z M 4.453125 -6.765625" transform="translate(13.577 25.436)"/></g></g></g><g><g><g><path d="M 4.484375 -1.59375 C 4.484375 -1.1875 4.515625 -0.890625 4.578125 -0.703125 C 4.648438 -0.523438 4.78125 -0.398438 4.96875 -0.328125 C 5.15625 -0.265625 5.460938 -0.234375 5.890625 -0.234375 C 5.929688 -0.234375 5.953125 -0.191406 5.953125 -0.109375 C 5.953125 -0.0351562 5.929688 0 5.890625 0 C 5.453125 0 5.109375 -0.00390625 4.859375 -0.015625 L 3.359375 -0.046875 L 1.890625 -0.015625 C 1.628906 -0.00390625 1.273438 0 0.828125 0 C 0.804688 0 0.796875 -0.0351562 0.796875 -0.109375 C 0.796875 -0.191406 0.804688 -0.234375 0.828125 -0.234375 C 1.253906 -0.234375 1.566406 -0.265625 1.765625 -0.328125 C 1.960938 -0.398438 2.09375 -0.53125 2.15625 -0.71875 C 2.226562 -0.914062 2.265625 -1.207031 2.265625 -1.59375 L 2.265625 -10.75 C 2.265625 -11.144531 2.226562 -11.4375 2.15625 -11.625 C 2.09375 -11.8125 1.960938 -11.9375 1.765625 -12 C 1.566406 -12.070312 1.253906 -12.109375 0.828125 -12.109375 C 0.804688 -12.109375 0.796875 -12.148438 0.796875 -12.234375 C 0.796875 -12.316406 0.804688 -12.359375 0.828125 -12.359375 L 1.890625 -12.328125 C 2.503906 -12.304688 2.992188 -12.296875 3.359375 -12.296875 C 3.765625 -12.296875 4.269531 -12.304688 4.875 -12.328125 L 5.890625 -12.359375 C 5.929688 -12.359375 5.953125 -12.316406 5.953125 -12.234375 C 5.953125 -12.148438 5.929688 -12.109375 5.890625 -12.109375 C 5.484375 -12.109375 5.179688 -12.066406 4.984375 -11.984375 C 4.785156 -11.910156 4.648438 -11.78125 4.578125 -11.59375 C 4.515625 -11.40625 4.484375 -11.113281 4.484375 -10.71875 Z M 4.484375 -1.59375" transform="translate(27.372 25.436)"/></g></g></g><g><g><g><path d="M 6.4375 0.078125 C 6.019531 0.078125 5.519531 0.0546875 4.9375 0.015625 C 4.726562 0.00390625 4.46875 -0.00390625 4.15625 -0.015625 C 3.851562 -0.0351562 3.507812 -0.046875 3.125 -0.046875 L 1.65625 -0.015625 C 1.394531 -0.00390625 1.039062 0 0.59375 0 C 0.5625 0 0.546875 -0.0351562 0.546875 -0.109375 C 0.546875 -0.191406 0.5625 -0.234375 0.59375 -0.234375 C 1.007812 -0.234375 1.316406 -0.265625 1.515625 -0.328125 C 1.710938 -0.398438 1.847656 -0.53125 1.921875 -0.71875 C 1.992188 -0.914062 2.03125 -1.207031 2.03125 -1.59375 L 2.03125 -10.75 C 2.03125 -11.144531 1.992188 -11.4375 1.921875 -11.625 C 1.847656 -11.8125 1.71875 -11.9375 1.53125 -12 C 1.34375 -12.070312 1.039062 -12.109375 0.625 -12.109375 C 0.59375 -12.109375 0.578125 -12.148438 0.578125 -12.234375 C 0.578125 -12.316406 0.59375 -12.359375 0.625 -12.359375 L 1.6875 -12.328125 C 2.289062 -12.304688 2.769531 -12.296875 3.125 -12.296875 C 3.664062 -12.296875 4.21875 -12.316406 4.78125 -12.359375 C 5.46875 -12.378906 5.929688 -12.390625 6.171875 -12.390625 C 7.492188 -12.390625 8.671875 -12.125 9.703125 -11.59375 C 10.742188 -11.070312 11.546875 -10.351562 12.109375 -9.4375 C 12.679688 -8.53125 12.96875 -7.515625 12.96875 -6.390625 C 12.96875 -5.109375 12.671875 -3.972656 12.078125 -2.984375 C 11.492188 -2.003906 10.703125 -1.25 9.703125 -0.71875 C 8.710938 -0.1875 7.625 0.078125 6.4375 0.078125 Z M 6.25 -0.375 C 7.09375 -0.375 7.835938 -0.585938 8.484375 -1.015625 C 9.128906 -1.441406 9.628906 -2.078125 9.984375 -2.921875 C 10.347656 -3.765625 10.53125 -4.773438 10.53125 -5.953125 C 10.53125 -7.066406 10.359375 -8.082031 10.015625 -9 C 9.671875 -9.914062 9.179688 -10.632812 8.546875 -11.15625 C 7.921875 -11.6875 7.191406 -11.953125 6.359375 -11.953125 C 5.546875 -11.953125 4.988281 -11.875 4.6875 -11.71875 C 4.382812 -11.5625 4.234375 -11.226562 4.234375 -10.71875 L 4.234375 -1.8125 C 4.234375 -1.289062 4.367188 -0.921875 4.640625 -0.703125 C 4.921875 -0.484375 5.457031 -0.375 6.25 -0.375 Z M 6.25 -0.375" transform="translate(34.131 25.436)"/></g></g></g><g><g><g><path d="M 8.078125 0.234375 C 6.628906 0.234375 5.363281 -0.0390625 4.28125 -0.59375 C 3.207031 -1.144531 2.382812 -1.898438 1.8125 -2.859375 C 1.25 -3.816406 0.96875 -4.878906 0.96875 -6.046875 C 0.96875 -7.316406 1.289062 -8.445312 1.9375 -9.4375 C 2.59375 -10.4375 3.488281 -11.207031 4.625 -11.75 C 5.769531 -12.300781 7.046875 -12.578125 8.453125 -12.578125 C 9.078125 -12.578125 9.703125 -12.523438 10.328125 -12.421875 C 10.960938 -12.328125 11.472656 -12.195312 11.859375 -12.03125 C 11.972656 -12 12.046875 -11.953125 12.078125 -11.890625 C 12.117188 -11.828125 12.144531 -11.722656 12.15625 -11.578125 L 12.40625 -8.828125 C 12.40625 -8.796875 12.375 -8.769531 12.3125 -8.75 C 12.25 -8.738281 12.203125 -8.757812 12.171875 -8.8125 C 11.710938 -9.832031 11.078125 -10.625 10.265625 -11.1875 C 9.453125 -11.75 8.523438 -12.03125 7.484375 -12.03125 C 6.140625 -12.03125 5.113281 -11.5625 4.40625 -10.625 C 3.707031 -9.695312 3.359375 -8.421875 3.359375 -6.796875 C 3.359375 -5.492188 3.582031 -4.332031 4.03125 -3.3125 C 4.476562 -2.289062 5.097656 -1.5 5.890625 -0.9375 C 6.691406 -0.375 7.585938 -0.09375 8.578125 -0.09375 C 9.117188 -0.09375 9.535156 -0.148438 9.828125 -0.265625 C 10.117188 -0.390625 10.328125 -0.625 10.453125 -0.96875 C 10.585938 -1.3125 10.65625 -1.816406 10.65625 -2.484375 C 10.65625 -3.171875 10.613281 -3.648438 10.53125 -3.921875 C 10.457031 -4.191406 10.289062 -4.375 10.03125 -4.46875 C 9.769531 -4.5625 9.328125 -4.609375 8.703125 -4.609375 C 8.617188 -4.609375 8.578125 -4.660156 8.578125 -4.765625 C 8.578125 -4.804688 8.585938 -4.84375 8.609375 -4.875 C 8.628906 -4.90625 8.648438 -4.921875 8.671875 -4.921875 C 9.796875 -4.859375 10.703125 -4.828125 11.390625 -4.828125 C 12.054688 -4.828125 12.753906 -4.84375 13.484375 -4.875 C 13.503906 -4.875 13.523438 -4.859375 13.546875 -4.828125 C 13.566406 -4.796875 13.578125 -4.769531 13.578125 -4.75 C 13.578125 -4.65625 13.546875 -4.609375 13.484375 -4.609375 C 13.242188 -4.617188 13.078125 -4.570312 12.984375 -4.46875 C 12.890625 -4.375 12.828125 -4.175781 12.796875 -3.875 C 12.773438 -3.582031 12.765625 -3.054688 12.765625 -2.296875 C 12.765625 -1.703125 12.785156 -1.28125 12.828125 -1.03125 C 12.878906 -0.78125 12.90625 -0.617188 12.90625 -0.546875 C 12.90625 -0.472656 12.890625 -0.421875 12.859375 -0.390625 C 12.828125 -0.367188 12.765625 -0.34375 12.671875 -0.3125 C 10.972656 0.0507812 9.441406 0.234375 8.078125 0.234375 Z M 8.078125 0.234375" transform="translate(48.065 25.436)"/></g></g></g><g><g><g><path d="M 9.796875 -3.140625 C 9.796875 -3.171875 9.820312 -3.1875 9.875 -3.1875 C 9.914062 -3.1875 9.953125 -3.175781 9.984375 -3.15625 C 10.023438 -3.132812 10.046875 -3.117188 10.046875 -3.109375 C 9.910156 -2.078125 9.84375 -1.140625 9.84375 -0.296875 C 9.84375 -0.191406 9.820312 -0.113281 9.78125 -0.0625 C 9.738281 -0.0195312 9.660156 0 9.546875 0 L 0.8125 0 C 0.769531 0 0.75 -0.0351562 0.75 -0.109375 C 0.75 -0.191406 0.769531 -0.234375 0.8125 -0.234375 C 1.226562 -0.234375 1.53125 -0.265625 1.71875 -0.328125 C 1.914062 -0.398438 2.046875 -0.53125 2.109375 -0.71875 C 2.179688 -0.914062 2.21875 -1.207031 2.21875 -1.59375 L 2.21875 -10.75 C 2.21875 -11.144531 2.179688 -11.4375 2.109375 -11.625 C 2.046875 -11.8125 1.914062 -11.9375 1.71875 -12 C 1.519531 -12.070312 1.21875 -12.109375 0.8125 -12.109375 C 0.769531 -12.109375 0.75 -12.148438 0.75 -12.234375 C 0.75 -12.316406 0.769531 -12.359375 0.8125 -12.359375 L 9.1875 -12.359375 C 9.320312 -12.359375 9.390625 -12.296875 9.390625 -12.171875 L 9.421875 -9.546875 C 9.421875 -9.515625 9.382812 -9.492188 9.3125 -9.484375 C 9.238281 -9.472656 9.195312 -9.488281 9.1875 -9.53125 C 8.976562 -10.289062 8.625 -10.851562 8.125 -11.21875 C 7.625 -11.59375 6.960938 -11.78125 6.140625 -11.78125 L 5.546875 -11.78125 C 5.160156 -11.78125 4.875 -11.691406 4.6875 -11.515625 C 4.5 -11.347656 4.40625 -11.085938 4.40625 -10.734375 L 4.40625 -6.703125 L 6.046875 -6.703125 C 6.804688 -6.703125 7.390625 -6.832031 7.796875 -7.09375 C 8.210938 -7.351562 8.421875 -7.722656 8.421875 -8.203125 C 8.421875 -8.242188 8.457031 -8.265625 8.53125 -8.265625 C 8.601562 -8.265625 8.640625 -8.242188 8.640625 -8.203125 L 8.625 -6.421875 L 8.640625 -5.46875 C 8.660156 -5.019531 8.671875 -4.664062 8.671875 -4.40625 C 8.671875 -4.382812 8.628906 -4.375 8.546875 -4.375 C 8.472656 -4.375 8.4375 -4.382812 8.4375 -4.40625 C 8.4375 -4.945312 8.226562 -5.367188 7.8125 -5.671875 C 7.394531 -5.984375 6.800781 -6.140625 6.03125 -6.140625 L 4.40625 -6.140625 L 4.40625 -1.6875 C 4.40625 -1.300781 4.476562 -1.015625 4.625 -0.828125 C 4.769531 -0.640625 5 -0.546875 5.3125 -0.546875 L 5.96875 -0.546875 C 7 -0.546875 7.820312 -0.753906 8.4375 -1.171875 C 9.0625 -1.597656 9.515625 -2.253906 9.796875 -3.140625 Z M 9.796875 -3.140625" transform="translate(62.275 25.436)"/></g></g></g></svg>